<mxfile host="65bd71144e">
    <diagram id="cOTvAHS44tfxs5c8YhwG" name="Page-1">
        <mxGraphModel dx="1066" dy="641" grid="1" gridSize="10" guides="1" tooltips="1" connect="1" arrows="1" fold="1" page="1" pageScale="1" pageWidth="850" pageHeight="1100" math="0" shadow="0">
            <root>
                <mxCell id="0"/>
                <mxCell id="1" parent="0"/>
                <mxCell id="2" value="" style="rounded=1;whiteSpace=wrap;html=1;" vertex="1" parent="1">
                    <mxGeometry x="110" y="100" width="530" height="380" as="geometry"/>
                </mxCell>
                <mxCell id="4" value="any&lt;br&gt;" style="rounded=0;whiteSpace=wrap;html=1;" vertex="1" parent="1">
                    <mxGeometry x="450" y="160" width="120" height="30" as="geometry"/>
                </mxCell>
                <mxCell id="13" value="'str'" style="rounded=0;whiteSpace=wrap;html=1;" vertex="1" parent="1">
                    <mxGeometry x="330" y="360" width="120" height="30" as="geometry"/>
                </mxCell>
                <mxCell id="3" value="unknow&lt;br&gt;" style="rounded=0;whiteSpace=wrap;html=1;" vertex="1" parent="1">
                    <mxGeometry x="180" y="160" width="120" height="30" as="geometry"/>
                </mxCell>
                <mxCell id="5" value="Object&lt;br&gt;" style="rounded=0;whiteSpace=wrap;html=1;" vertex="1" parent="1">
                    <mxGeometry x="180" y="200" width="400" height="30" as="geometry"/>
                </mxCell>
                <mxCell id="6" value="Number&lt;span style=&quot;white-space: pre;&quot;&gt;&#9;&lt;/span&gt;" style="rounded=0;whiteSpace=wrap;html=1;" vertex="1" parent="1">
                    <mxGeometry x="180" y="250" width="120" height="30" as="geometry"/>
                </mxCell>
                <mxCell id="7" value="String" style="rounded=0;whiteSpace=wrap;html=1;" vertex="1" parent="1">
                    <mxGeometry x="330" y="250" width="120" height="30" as="geometry"/>
                </mxCell>
                <mxCell id="8" value="Boolean" style="rounded=0;whiteSpace=wrap;html=1;" vertex="1" parent="1">
                    <mxGeometry x="460" y="250" width="120" height="30" as="geometry"/>
                </mxCell>
                <mxCell id="9" value="number&lt;span style=&quot;white-space: pre;&quot;&gt;&#9;&lt;/span&gt;" style="rounded=0;whiteSpace=wrap;html=1;" vertex="1" parent="1">
                    <mxGeometry x="180" y="305" width="120" height="30" as="geometry"/>
                </mxCell>
                <mxCell id="10" value="string&lt;br&gt;" style="rounded=0;whiteSpace=wrap;html=1;" vertex="1" parent="1">
                    <mxGeometry x="330" y="305" width="120" height="30" as="geometry"/>
                </mxCell>
                <mxCell id="11" value="boolean" style="rounded=0;whiteSpace=wrap;html=1;" vertex="1" parent="1">
                    <mxGeometry x="460" y="305" width="120" height="30" as="geometry"/>
                </mxCell>
                <mxCell id="12" value="1" style="rounded=0;whiteSpace=wrap;html=1;" vertex="1" parent="1">
                    <mxGeometry x="180" y="360" width="120" height="30" as="geometry"/>
                </mxCell>
                <mxCell id="14" value="true" style="rounded=0;whiteSpace=wrap;html=1;" vertex="1" parent="1">
                    <mxGeometry x="460" y="360" width="120" height="30" as="geometry"/>
                </mxCell>
                <mxCell id="15" value="never" style="rounded=0;whiteSpace=wrap;html=1;" vertex="1" parent="1">
                    <mxGeometry x="180" y="410" width="400" height="30" as="geometry"/>
                </mxCell>
            </root>
        </mxGraphModel>
    </diagram>
</mxfile>